<svg width="2048" height="1360" viewBox="0 0 2048 1360" fill="none" xmlns="http://www.w3.org/2000/svg">
<g clip-path="url(#clip0_207_2)">
<path d="M1024 1229.79V1360C938.447 1360 864.74 1341.77 779.188 1285.78C688.37 1335.26 598.869 1360 490.941 1360C222.437 1358.7 0 1125.62 0 867.812C0 569.635 227.702 360 494.889 360C781.82 360 1002.94 578.75 1002.94 860C1002.94 981.094 966.087 1086.56 883.167 1195.94C925.285 1220.68 962.139 1229.79 1013.47 1229.79H1024ZM767.342 1111.3C831.835 1031.87 860.792 957.656 860.792 860C860.792 665.99 702.848 488.906 510.684 488.906C294.828 488.906 142.149 664.687 142.149 861.302C142.149 896.458 144.781 923.802 155.311 960.26C214.54 936.823 277.717 930.312 339.578 930.312C477.779 930.312 618.612 990.208 767.342 1111.3ZM652.833 1188.12C530.427 1098.28 431.712 1059.22 326.416 1059.22C289.563 1059.22 255.342 1061.82 214.54 1081.35C282.982 1175.1 393.542 1231.09 505.419 1231.09C562.015 1231.09 606.766 1220.68 652.833 1188.12Z" fill="#7B5CA5"/>
<path d="M1024 1169.79V1300C938.447 1300 864.74 1281.77 779.188 1225.78C688.37 1275.26 598.869 1300 490.941 1300C222.437 1298.7 0 1065.62 0 807.812C0 509.635 227.702 300 494.889 300C781.82 300 1002.94 518.75 1002.94 800C1002.94 921.094 966.087 1026.56 883.167 1135.94C925.285 1160.68 962.139 1169.79 1013.47 1169.79H1024ZM767.342 1051.3C831.835 971.875 860.792 897.656 860.792 800C860.792 605.99 702.848 428.906 510.684 428.906C294.828 428.906 142.149 604.687 142.149 801.302C142.149 836.458 144.781 863.802 155.311 900.26C214.54 876.823 277.717 870.312 339.578 870.312C477.779 870.312 618.612 930.208 767.342 1051.3ZM652.833 1128.12C530.427 1038.28 431.712 999.219 326.416 999.219C289.563 999.219 255.342 1001.82 214.54 1021.35C282.982 1115.1 393.542 1171.09 505.419 1171.09C562.015 1171.09 606.766 1160.68 652.833 1128.12Z" fill="#1982C4"/>
<path d="M1024 1109.79V1240C938.447 1240 864.74 1221.77 779.188 1165.78C688.37 1215.26 598.869 1240 490.941 1240C222.437 1238.7 0 1005.62 0 747.812C0 449.635 227.702 240 494.889 240C781.82 240 1002.94 458.75 1002.94 740C1002.94 861.094 966.087 966.562 883.167 1075.94C925.285 1100.68 962.139 1109.79 1013.47 1109.79H1024ZM767.342 991.302C831.835 911.875 860.792 837.656 860.792 740C860.792 545.99 702.848 368.906 510.684 368.906C294.828 368.906 142.149 544.687 142.149 741.302C142.149 776.458 144.781 803.802 155.311 840.26C214.54 816.823 277.717 810.312 339.578 810.312C477.779 810.312 618.612 870.208 767.342 991.302ZM652.833 1068.12C530.427 978.281 431.712 939.219 326.416 939.219C289.563 939.219 255.342 941.823 214.54 961.354C282.982 1055.1 393.542 1111.09 505.419 1111.09C562.015 1111.09 606.766 1100.68 652.833 1068.12Z" fill="#8AC926"/>
<path d="M1024 1049.79V1180C938.447 1180 864.74 1161.77 779.188 1105.78C688.37 1155.26 598.869 1180 490.941 1180C222.437 1178.7 0 945.625 0 687.812C0 389.635 227.702 180 494.889 180C781.82 180 1002.94 398.75 1002.94 680C1002.94 801.094 966.087 906.562 883.167 1015.94C925.285 1040.68 962.139 1049.79 1013.47 1049.79H1024ZM767.342 931.302C831.835 851.875 860.792 777.656 860.792 680C860.792 485.99 702.848 308.906 510.684 308.906C294.828 308.906 142.149 484.687 142.149 681.302C142.149 716.458 144.781 743.802 155.311 780.26C214.54 756.823 277.717 750.312 339.578 750.312C477.779 750.312 618.612 810.208 767.342 931.302ZM652.833 1008.12C530.427 918.281 431.712 879.219 326.416 879.219C289.563 879.219 255.342 881.823 214.54 901.354C282.982 995.104 393.542 1051.09 505.419 1051.09C562.015 1051.09 606.766 1040.68 652.833 1008.12Z" fill="#FFCA3A"/>
<path d="M1024 989.792V1120C938.447 1120 864.74 1101.77 779.188 1045.78C688.37 1095.26 598.869 1120 490.941 1120C222.437 1118.7 0 885.625 0 627.812C0 329.635 227.702 120 494.889 120C781.82 120 1002.94 338.75 1002.94 620C1002.94 741.094 966.087 846.562 883.167 955.937C925.285 980.677 962.139 989.792 1013.47 989.792H1024ZM767.342 871.302C831.835 791.875 860.792 717.656 860.792 620C860.792 425.99 702.848 248.906 510.684 248.906C294.828 248.906 142.149 424.687 142.149 621.302C142.149 656.458 144.781 683.802 155.311 720.26C214.54 696.823 277.717 690.312 339.578 690.312C477.779 690.312 618.612 750.208 767.342 871.302ZM652.833 948.125C530.427 858.281 431.712 819.219 326.416 819.219C289.563 819.219 255.342 821.823 214.54 841.354C282.982 935.104 393.542 991.094 505.419 991.094C562.015 991.094 606.766 980.677 652.833 948.125Z" fill="#FF8D3A"/>
<path d="M1024 929.792V1060C938.447 1060 864.74 1041.77 779.188 985.781C688.37 1035.26 598.869 1060 490.941 1060C222.437 1058.7 0 825.625 0 567.812C0 269.635 227.702 60 494.889 60C781.82 60 1002.94 278.75 1002.94 560C1002.94 681.094 966.087 786.562 883.167 895.937C925.285 920.677 962.139 929.792 1013.47 929.792H1024ZM767.342 811.302C831.835 731.875 860.792 657.656 860.792 560C860.792 365.99 702.848 188.906 510.684 188.906C294.828 188.906 142.149 364.687 142.149 561.302C142.149 596.458 144.781 623.802 155.311 660.26C214.54 636.823 277.717 630.312 339.578 630.312C477.779 630.312 618.612 690.208 767.342 811.302ZM652.833 888.125C530.427 798.281 431.712 759.219 326.416 759.219C289.563 759.219 255.342 761.823 214.54 781.354C282.982 875.104 393.542 931.094 505.419 931.094C562.015 931.094 606.766 920.677 652.833 888.125Z" fill="#FF595E"/>
<path d="M1024 869.792V1000C938.447 1000 864.74 981.771 779.188 925.781C688.37 975.26 598.869 1000 490.941 1000C222.437 998.698 0 765.625 0 507.812C0 209.635 227.702 0 494.889 0C781.82 0 1002.94 218.75 1002.94 500C1002.94 621.094 966.087 726.562 883.167 835.937C925.285 860.677 962.139 869.792 1013.47 869.792H1024ZM767.342 751.302C831.835 671.875 860.792 597.656 860.792 500C860.792 305.99 702.848 128.906 510.684 128.906C294.828 128.906 142.149 304.687 142.149 501.302C142.149 536.458 144.781 563.802 155.311 600.26C214.54 576.823 277.717 570.312 339.578 570.312C477.779 570.312 618.612 630.208 767.342 751.302ZM652.833 828.125C530.427 738.281 431.712 699.219 326.416 699.219C289.563 699.219 255.342 701.823 214.54 721.354C282.982 815.104 393.542 871.094 505.419 871.094C562.015 871.094 606.766 860.677 652.833 828.125Z" fill="white"/>
<path fill-rule="evenodd" clip-rule="evenodd" d="M1872 1043L1872 1103C1792.94 1191.54 1696.2 1231.09 1594.74 1231.09C1394.46 1231.09 1240.3 1052.71 1240.3 850.885C1240.3 659.479 1398.42 488.906 1602.65 488.906C1717.28 488.906 1798.21 540.365 1872 625H2048V565H2010.07C1908.31 425.366 1754.82 360 1592.11 360C1329.9 360 1098 573.542 1098 863.906C1098 1120.42 1320.68 1360 1590.79 1360C1785.79 1360 1949.18 1270.97 2048 1103L2048 1043H1872Z" fill="#7B5CA5"/>
<path fill-rule="evenodd" clip-rule="evenodd" d="M1872 983L1872 1043C1792.94 1131.54 1696.2 1171.09 1594.74 1171.09C1394.46 1171.09 1240.3 992.708 1240.3 790.885C1240.3 599.479 1398.42 428.906 1602.65 428.906C1717.28 428.906 1798.21 480.365 1872 565H2048V505H2010.07C1908.31 365.366 1754.82 300 1592.11 300C1329.9 300 1098 513.542 1098 803.906C1098 1060.42 1320.68 1300 1590.79 1300C1785.79 1300 1949.18 1210.97 2048 1043L2048 983H1872Z" fill="#1982C4"/>
<path fill-rule="evenodd" clip-rule="evenodd" d="M1872 923L1872 983C1792.94 1071.54 1696.2 1111.09 1594.74 1111.09C1394.46 1111.09 1240.3 932.708 1240.3 730.885C1240.3 539.479 1398.42 368.906 1602.65 368.906C1717.28 368.906 1798.21 420.365 1872 505H2048V445H2010.07C1908.31 305.366 1754.82 240 1592.11 240C1329.9 240 1098 453.542 1098 743.906C1098 1000.42 1320.68 1240 1590.79 1240C1785.79 1240 1949.18 1150.97 2048 983L2048 923H1872Z" fill="#8AC926"/>
<path fill-rule="evenodd" clip-rule="evenodd" d="M1872 863L1872 923C1792.94 1011.54 1696.2 1051.09 1594.74 1051.09C1394.46 1051.09 1240.3 872.708 1240.3 670.885C1240.3 479.479 1398.42 308.906 1602.65 308.906C1717.28 308.906 1798.21 360.365 1872 445H2048V385H2010.07C1908.31 245.366 1754.82 180 1592.11 180C1329.9 180 1098 393.542 1098 683.906C1098 940.417 1320.68 1180 1590.79 1180C1785.79 1180 1949.18 1090.97 2048 923L2048 863H1872Z" fill="#FFCA3A"/>
<path fill-rule="evenodd" clip-rule="evenodd" d="M1872 803L1872 863C1792.94 951.542 1696.2 991.094 1594.74 991.094C1394.46 991.094 1240.3 812.708 1240.3 610.885C1240.3 419.479 1398.42 248.906 1602.65 248.906C1717.28 248.906 1798.21 300.365 1872 385H2048V325H2010.07C1908.31 185.366 1754.82 120 1592.11 120C1329.9 120 1098 333.542 1098 623.906C1098 880.417 1320.68 1120 1590.79 1120C1785.79 1120 1949.18 1030.97 2048 863L2048 803H1872Z" fill="#FF8D3A"/>
<path fill-rule="evenodd" clip-rule="evenodd" d="M1872 743L1872 803C1792.94 891.542 1696.2 931.094 1594.74 931.094C1394.46 931.094 1240.3 752.708 1240.3 550.885C1240.3 359.479 1398.42 188.906 1602.65 188.906C1717.28 188.906 1798.21 240.365 1872 325H2048V265H2010.07C1908.31 125.366 1754.82 60 1592.11 60C1329.9 60 1098 273.542 1098 563.906C1098 820.417 1320.68 1060 1590.79 1060C1785.79 1060 1949.18 970.969 2048 803L2048 743H1872Z" fill="#FF595E"/>
<path d="M1872 743H2048C1949.18 910.969 1785.79 1000 1590.79 1000C1320.68 1000 1098 760.417 1098 503.906C1098 213.542 1329.9 0 1592.11 0C1776.57 0 1949.18 84.0103 2048 265H1872C1798.21 180.365 1717.28 128.906 1602.65 128.906C1398.42 128.906 1240.3 299.479 1240.3 490.885C1240.3 692.708 1394.46 871.094 1594.74 871.094C1696.2 871.094 1792.94 831.542 1872 743Z" fill="white"/>
</g>
<defs>
<clipPath id="clip0_207_2">
<rect width="2048" height="1360" fill="white"/>
</clipPath>
</defs>
</svg>
